<mxfile host="app.diagrams.net" agent="Mozilla/5.0 (Windows NT 10.0; Win64; x64) AppleWebKit/537.36 (KHTML, like Gecko) Chrome/136.0.0.0 Safari/537.36" version="26.2.14">
  <diagram name="1 - High Level" id="2K5fSFZMHR8grNCgH0aJ">
    <mxGraphModel dx="1042" dy="1738" grid="0" gridSize="10" guides="1" tooltips="1" connect="1" arrows="1" fold="1" page="1" pageScale="1" pageWidth="827" pageHeight="1169" math="0" shadow="0">
      <root>
        <mxCell id="0" />
        <mxCell id="1" parent="0" />
        <mxCell id="pbIngpJnXKiTBNqCbYUP-33" value="" style="group" vertex="1" connectable="0" parent="1">
          <mxGeometry x="200" y="-284" width="463.46" height="214" as="geometry" />
        </mxCell>
        <mxCell id="pbIngpJnXKiTBNqCbYUP-26" value="" style="rounded=1;whiteSpace=wrap;html=1;align=left;arcSize=20;" vertex="1" parent="pbIngpJnXKiTBNqCbYUP-33">
          <mxGeometry x="1.87" width="457.13" height="214" as="geometry" />
        </mxCell>
        <mxCell id="pbIngpJnXKiTBNqCbYUP-27" value="Authentication" style="text;html=1;align=center;verticalAlign=middle;resizable=0;points=[];autosize=1;strokeColor=none;fillColor=none;" vertex="1" parent="pbIngpJnXKiTBNqCbYUP-33">
          <mxGeometry x="7" y="19.995853321829156" width="93" height="26" as="geometry" />
        </mxCell>
        <mxCell id="pbIngpJnXKiTBNqCbYUP-19" value="Online Registration" style="rounded=1;whiteSpace=wrap;html=1;" vertex="1" parent="pbIngpJnXKiTBNqCbYUP-33">
          <mxGeometry x="105.46" y="22" width="78" height="43" as="geometry" />
        </mxCell>
        <mxCell id="pbIngpJnXKiTBNqCbYUP-20" value="Login" style="rounded=1;whiteSpace=wrap;html=1;" vertex="1" parent="pbIngpJnXKiTBNqCbYUP-33">
          <mxGeometry x="201.45999999999998" y="22" width="78" height="43" as="geometry" />
        </mxCell>
        <mxCell id="pbIngpJnXKiTBNqCbYUP-21" value="Reset Password" style="rounded=1;whiteSpace=wrap;html=1;" vertex="1" parent="pbIngpJnXKiTBNqCbYUP-33">
          <mxGeometry x="293.46" y="22" width="78" height="43" as="geometry" />
        </mxCell>
        <mxCell id="pbIngpJnXKiTBNqCbYUP-16" value="" style="group" vertex="1" connectable="0" parent="pbIngpJnXKiTBNqCbYUP-33">
          <mxGeometry x="127.00000000000006" y="78" width="222" height="115" as="geometry" />
        </mxCell>
        <mxCell id="pbIngpJnXKiTBNqCbYUP-17" value="" style="rounded=1;whiteSpace=wrap;html=1;" vertex="1" parent="pbIngpJnXKiTBNqCbYUP-16">
          <mxGeometry width="222" height="115" as="geometry" />
        </mxCell>
        <mxCell id="pbIngpJnXKiTBNqCbYUP-18" value="User" style="text;html=1;align=center;verticalAlign=middle;resizable=0;points=[];autosize=1;strokeColor=none;fillColor=none;" vertex="1" parent="pbIngpJnXKiTBNqCbYUP-16">
          <mxGeometry x="6.99589548319328" y="8.001736526946107" width="43" height="26" as="geometry" />
        </mxCell>
        <mxCell id="pbIngpJnXKiTBNqCbYUP-13" value="Admin" style="rounded=1;whiteSpace=wrap;html=1;" vertex="1" parent="pbIngpJnXKiTBNqCbYUP-33">
          <mxGeometry x="246.00000000000006" y="118" width="78" height="43" as="geometry" />
        </mxCell>
        <mxCell id="pbIngpJnXKiTBNqCbYUP-12" value="Customer" style="rounded=1;whiteSpace=wrap;html=1;" vertex="1" parent="pbIngpJnXKiTBNqCbYUP-33">
          <mxGeometry x="152.00000000000006" y="118" width="78" height="43" as="geometry" />
        </mxCell>
        <mxCell id="pbIngpJnXKiTBNqCbYUP-30" value="" style="group" vertex="1" connectable="0" parent="1">
          <mxGeometry x="191" y="128" width="235" height="139" as="geometry" />
        </mxCell>
        <mxCell id="pbIngpJnXKiTBNqCbYUP-31" value="" style="rounded=1;whiteSpace=wrap;html=1;" vertex="1" parent="pbIngpJnXKiTBNqCbYUP-30">
          <mxGeometry width="234.99999999999997" height="139" as="geometry" />
        </mxCell>
        <mxCell id="pbIngpJnXKiTBNqCbYUP-32" value="System" style="text;html=1;align=center;verticalAlign=middle;resizable=0;points=[];autosize=1;strokeColor=none;fillColor=none;" vertex="1" parent="pbIngpJnXKiTBNqCbYUP-30">
          <mxGeometry x="-0.00434487139450087" y="9.671664149960948" width="58" height="26" as="geometry" />
        </mxCell>
        <mxCell id="pbIngpJnXKiTBNqCbYUP-15" value="" style="group" vertex="1" connectable="0" parent="1">
          <mxGeometry x="133" y="-12" width="362" height="95" as="geometry" />
        </mxCell>
        <mxCell id="pbIngpJnXKiTBNqCbYUP-23" value="" style="group" vertex="1" connectable="0" parent="pbIngpJnXKiTBNqCbYUP-15">
          <mxGeometry width="362" height="95" as="geometry" />
        </mxCell>
        <mxCell id="pbIngpJnXKiTBNqCbYUP-4" value="" style="rounded=1;whiteSpace=wrap;html=1;align=left;arcSize=20;" vertex="1" parent="pbIngpJnXKiTBNqCbYUP-23">
          <mxGeometry width="362" height="95" as="geometry" />
        </mxCell>
        <mxCell id="pbIngpJnXKiTBNqCbYUP-5" value="Transaction" style="text;html=1;align=center;verticalAlign=middle;resizable=0;points=[];autosize=1;strokeColor=none;fillColor=none;" vertex="1" parent="pbIngpJnXKiTBNqCbYUP-23">
          <mxGeometry x="4.5363408521303255" y="4.9981967213114755" width="80" height="26" as="geometry" />
        </mxCell>
        <mxCell id="pbIngpJnXKiTBNqCbYUP-14" value="" style="group" vertex="1" connectable="0" parent="1">
          <mxGeometry x="538" y="-35" width="256" height="167" as="geometry" />
        </mxCell>
        <mxCell id="pbIngpJnXKiTBNqCbYUP-10" value="" style="rounded=1;whiteSpace=wrap;html=1;" vertex="1" parent="pbIngpJnXKiTBNqCbYUP-14">
          <mxGeometry width="256" height="167" as="geometry" />
        </mxCell>
        <mxCell id="pbIngpJnXKiTBNqCbYUP-11" value="Account" style="text;html=1;align=center;verticalAlign=middle;resizable=0;points=[];autosize=1;strokeColor=none;fillColor=none;" vertex="1" parent="pbIngpJnXKiTBNqCbYUP-14">
          <mxGeometry x="21" y="6" width="61" height="26" as="geometry" />
        </mxCell>
        <mxCell id="pbIngpJnXKiTBNqCbYUP-1" value="Deposit" style="rounded=1;whiteSpace=wrap;html=1;" vertex="1" parent="1">
          <mxGeometry x="195" y="19" width="78" height="43" as="geometry" />
        </mxCell>
        <mxCell id="pbIngpJnXKiTBNqCbYUP-2" value="Withdraw" style="rounded=1;whiteSpace=wrap;html=1;" vertex="1" parent="1">
          <mxGeometry x="293" y="19" width="78" height="43" as="geometry" />
        </mxCell>
        <mxCell id="pbIngpJnXKiTBNqCbYUP-3" value="Transfer" style="rounded=1;whiteSpace=wrap;html=1;" vertex="1" parent="1">
          <mxGeometry x="391" y="19" width="78" height="43" as="geometry" />
        </mxCell>
        <mxCell id="pbIngpJnXKiTBNqCbYUP-6" value="Saving" style="rounded=1;whiteSpace=wrap;html=1;" vertex="1" parent="1">
          <mxGeometry x="584" y="5.5" width="78" height="43" as="geometry" />
        </mxCell>
        <mxCell id="pbIngpJnXKiTBNqCbYUP-7" value="Checking" style="rounded=1;whiteSpace=wrap;html=1;" vertex="1" parent="1">
          <mxGeometry x="678" y="5.5" width="78" height="43" as="geometry" />
        </mxCell>
        <mxCell id="pbIngpJnXKiTBNqCbYUP-8" value="Fixed" style="rounded=1;whiteSpace=wrap;html=1;" vertex="1" parent="1">
          <mxGeometry x="584" y="66" width="78" height="43" as="geometry" />
        </mxCell>
        <mxCell id="pbIngpJnXKiTBNqCbYUP-9" value="Joint" style="rounded=1;whiteSpace=wrap;html=1;" vertex="1" parent="1">
          <mxGeometry x="678" y="66" width="78" height="43" as="geometry" />
        </mxCell>
        <mxCell id="pbIngpJnXKiTBNqCbYUP-28" value="Interest Posting" style="rounded=1;whiteSpace=wrap;html=1;" vertex="1" parent="1">
          <mxGeometry x="232" y="168" width="78" height="43" as="geometry" />
        </mxCell>
      </root>
    </mxGraphModel>
  </diagram>
</mxfile>
